<mxfile host="app.diagrams.net" agent="Mozilla/5.0 (Windows NT 10.0; Win64; x64) AppleWebKit/537.36 (KHTML, like Gecko) Chrome/140.0.0.0 Safari/537.36" version="28.2.3">
  <diagram name="Trang-1" id="Z3160t1Kyx1767yZBqZQ">
    <mxGraphModel dx="786" dy="459" grid="1" gridSize="10" guides="1" tooltips="1" connect="1" arrows="1" fold="1" page="1" pageScale="1" pageWidth="827" pageHeight="1169" math="0" shadow="0">
      <root>
        <mxCell id="0" />
        <mxCell id="1" parent="0" />
        <mxCell id="kum7crqJcoz2QkLPw_VB-3" value="" style="edgeStyle=orthogonalEdgeStyle;rounded=0;orthogonalLoop=1;jettySize=auto;html=1;" edge="1" parent="1" source="kum7crqJcoz2QkLPw_VB-1" target="kum7crqJcoz2QkLPw_VB-2">
          <mxGeometry relative="1" as="geometry" />
        </mxCell>
        <mxCell id="kum7crqJcoz2QkLPw_VB-1" value="Bắt đầu" style="ellipse;whiteSpace=wrap;html=1;" vertex="1" parent="1">
          <mxGeometry x="320" y="20" width="120" height="80" as="geometry" />
        </mxCell>
        <mxCell id="kum7crqJcoz2QkLPw_VB-4" style="edgeStyle=orthogonalEdgeStyle;rounded=0;orthogonalLoop=1;jettySize=auto;html=1;" edge="1" parent="1" source="kum7crqJcoz2QkLPw_VB-2" target="kum7crqJcoz2QkLPw_VB-5">
          <mxGeometry relative="1" as="geometry">
            <mxPoint x="380" y="240" as="targetPoint" />
          </mxGeometry>
        </mxCell>
        <mxCell id="kum7crqJcoz2QkLPw_VB-2" value="Tìm đồ" style="whiteSpace=wrap;html=1;" vertex="1" parent="1">
          <mxGeometry x="320" y="140" width="120" height="60" as="geometry" />
        </mxCell>
        <mxCell id="kum7crqJcoz2QkLPw_VB-6" style="edgeStyle=orthogonalEdgeStyle;rounded=0;orthogonalLoop=1;jettySize=auto;html=1;" edge="1" parent="1" source="kum7crqJcoz2QkLPw_VB-5" target="kum7crqJcoz2QkLPw_VB-7">
          <mxGeometry relative="1" as="geometry">
            <mxPoint x="220" y="290" as="targetPoint" />
          </mxGeometry>
        </mxCell>
        <mxCell id="kum7crqJcoz2QkLPw_VB-9" value="" style="edgeStyle=orthogonalEdgeStyle;rounded=0;orthogonalLoop=1;jettySize=auto;html=1;" edge="1" parent="1" source="kum7crqJcoz2QkLPw_VB-5" target="kum7crqJcoz2QkLPw_VB-8">
          <mxGeometry relative="1" as="geometry" />
        </mxCell>
        <mxCell id="kum7crqJcoz2QkLPw_VB-5" value="Tồn tại" style="rhombus;whiteSpace=wrap;html=1;" vertex="1" parent="1">
          <mxGeometry x="340" y="250" width="80" height="80" as="geometry" />
        </mxCell>
        <mxCell id="kum7crqJcoz2QkLPw_VB-10" style="edgeStyle=orthogonalEdgeStyle;rounded=0;orthogonalLoop=1;jettySize=auto;html=1;entryX=0;entryY=0.25;entryDx=0;entryDy=0;" edge="1" parent="1" source="kum7crqJcoz2QkLPw_VB-7" target="kum7crqJcoz2QkLPw_VB-2">
          <mxGeometry relative="1" as="geometry">
            <Array as="points">
              <mxPoint x="220" y="155" />
            </Array>
          </mxGeometry>
        </mxCell>
        <mxCell id="kum7crqJcoz2QkLPw_VB-11" value="có" style="edgeLabel;html=1;align=center;verticalAlign=middle;resizable=0;points=[];" vertex="1" connectable="0" parent="kum7crqJcoz2QkLPw_VB-10">
          <mxGeometry x="-0.0291" y="1" relative="1" as="geometry">
            <mxPoint x="-1" y="1" as="offset" />
          </mxGeometry>
        </mxCell>
        <mxCell id="kum7crqJcoz2QkLPw_VB-13" value="" style="edgeStyle=orthogonalEdgeStyle;rounded=0;orthogonalLoop=1;jettySize=auto;html=1;" edge="1" parent="1" source="kum7crqJcoz2QkLPw_VB-7" target="kum7crqJcoz2QkLPw_VB-12">
          <mxGeometry relative="1" as="geometry" />
        </mxCell>
        <mxCell id="kum7crqJcoz2QkLPw_VB-7" value="Hỏi nhân viên" style="rhombus;whiteSpace=wrap;html=1;" vertex="1" parent="1">
          <mxGeometry x="180" y="250" width="80" height="80" as="geometry" />
        </mxCell>
        <mxCell id="kum7crqJcoz2QkLPw_VB-16" style="edgeStyle=orthogonalEdgeStyle;rounded=0;orthogonalLoop=1;jettySize=auto;html=1;exitX=0.5;exitY=1;exitDx=0;exitDy=0;entryX=1;entryY=0.5;entryDx=0;entryDy=0;" edge="1" parent="1" source="kum7crqJcoz2QkLPw_VB-8" target="kum7crqJcoz2QkLPw_VB-15">
          <mxGeometry relative="1" as="geometry" />
        </mxCell>
        <mxCell id="kum7crqJcoz2QkLPw_VB-17" value="Text" style="edgeLabel;html=1;align=center;verticalAlign=middle;resizable=0;points=[];" vertex="1" connectable="0" parent="kum7crqJcoz2QkLPw_VB-16">
          <mxGeometry x="0.3185" y="1" relative="1" as="geometry">
            <mxPoint as="offset" />
          </mxGeometry>
        </mxCell>
        <mxCell id="kum7crqJcoz2QkLPw_VB-8" value="tồn tại" style="rhombus;whiteSpace=wrap;html=1;" vertex="1" parent="1">
          <mxGeometry x="500" y="250" width="80" height="80" as="geometry" />
        </mxCell>
        <mxCell id="kum7crqJcoz2QkLPw_VB-12" value="đi về" style="whiteSpace=wrap;html=1;" vertex="1" parent="1">
          <mxGeometry x="160" y="390" width="120" height="60" as="geometry" />
        </mxCell>
        <mxCell id="kum7crqJcoz2QkLPw_VB-15" value="Kết thúc" style="ellipse;whiteSpace=wrap;html=1;" vertex="1" parent="1">
          <mxGeometry x="330" y="470" width="120" height="80" as="geometry" />
        </mxCell>
      </root>
    </mxGraphModel>
  </diagram>
</mxfile>
